<?xml version="1.0" encoding="utf-8"?><svg viewBox="0 0 70 70" xmlns="http://www.w3.org/2000/svg" xmlns:xlink="http://www.w3.org/1999/xlink"><style>:root>svg{display:none}:root>svg:target{display:block}</style><svg fill="none" viewBox="0 0 15 26" id="icon-facebook" xmlns="http://www.w3.org/2000/svg"><path d="M14.435.005L10.837 0C6.795 0 4.183 2.511 4.183 6.399v2.95H.566c-.313 0-.566.237-.566.53v4.275c0 .293.253.53.566.53h3.617V25.47c0 .293.253.53.566.53h4.72c.312 0 .565-.238.565-.53V14.684h4.23c.313 0 .566-.237.566-.53l.001-4.275c0-.14-.06-.275-.165-.375a.586.586 0 00-.4-.155h-4.232V6.848c0-1.202.306-1.812 1.977-1.812l2.424-.001c.312 0 .565-.238.565-.53V.535c0-.292-.253-.529-.565-.53z" fill="#fff" fill-opacity=".6"/></svg><svg fill="none" viewBox="0 0 27 45" id="icon-facebook-w" xmlns="http://www.w3.org/2000/svg"><path d="M25.675.01L19.439 0C12.432 0 7.905 4.347 7.905 11.075v5.106h-6.27c-.542 0-.981.41-.981.918v7.398c0 .507.44.918.98.918h6.27v18.667c0 .507.44.918.981.918h8.181c.542 0 .98-.411.98-.918V25.414h7.332c.542 0 .98-.41.98-.917l.004-7.398a.89.89 0 00-.287-.65 1.016 1.016 0 00-.694-.268h-7.334v-4.329c0-2.08.53-3.136 3.426-3.136l4.2-.002c.542 0 .98-.41.98-.917V.927c0-.506-.438-.917-.978-.918z" fill="#fff"/></svg><svg fill="none" viewBox="0 0 26 26" id="icon-inst" xmlns="http://www.w3.org/2000/svg"><path d="M17.875 0h-9.75A8.126 8.126 0 000 8.125v9.75A8.126 8.126 0 008.125 26h9.75A8.126 8.126 0 0026 17.875v-9.75A8.126 8.126 0 0017.875 0zm5.688 17.875a5.694 5.694 0 01-5.688 5.688h-9.75a5.694 5.694 0 01-5.688-5.688v-9.75a5.694 5.694 0 015.688-5.688h9.75a5.694 5.694 0 015.688 5.688v9.75z" fill="#fff" fill-opacity=".6"/><path d="M13 6.5a6.5 6.5 0 100 13 6.5 6.5 0 000-13zm0 10.563A4.068 4.068 0 018.937 13 4.067 4.067 0 0113 8.937 4.067 4.067 0 0117.063 13 4.068 4.068 0 0113 17.063zM19.985 6.879a.866.866 0 100-1.732.866.866 0 000 1.732z" fill="#fff" fill-opacity=".6"/></svg><svg fill="none" viewBox="0 0 45 45" id="icon-inst-w" xmlns="http://www.w3.org/2000/svg"><path d="M30.938 0H14.063C6.296 0 0 6.297 0 14.063v16.874C0 38.703 6.297 45 14.063 45h16.874C38.703 45 45 38.703 45 30.937V14.063C45 6.298 38.703 0 30.937 0zm9.843 30.938c0 5.428-4.415 9.843-9.843 9.843H14.063c-5.429 0-9.844-4.415-9.844-9.843V14.063c0-5.429 4.415-9.844 9.843-9.844h16.876c5.428 0 9.843 4.415 9.843 9.843v16.876z" fill="#fff"/><path d="M22.5 11.25c-6.213 0-11.25 5.037-11.25 11.25s5.037 11.25 11.25 11.25 11.25-5.037 11.25-11.25-5.037-11.25-11.25-11.25zm0 18.281c-3.876 0-7.031-3.155-7.031-7.031 0-3.878 3.155-7.031 7.031-7.031s7.031 3.153 7.031 7.031c0 3.876-3.155 7.031-7.031 7.031zM34.59 11.906a1.5 1.5 0 100-2.998 1.5 1.5 0 000 2.998z" fill="#fff"/></svg><svg fill="none" viewBox="0 0 26 14" id="icon-vk" xmlns="http://www.w3.org/2000/svg"><path d="M25.862 12.643a1.654 1.654 0 00-.088-.16c-.451-.766-1.313-1.707-2.586-2.823l-.026-.025-.014-.013-.014-.013h-.013c-.578-.52-.943-.869-1.096-1.048-.28-.34-.343-.685-.19-1.035.108-.264.514-.821 1.218-1.673.37-.451.663-.813.88-1.086 1.561-1.959 2.238-3.21 2.03-3.756l-.08-.127c-.054-.077-.194-.147-.42-.211-.226-.064-.514-.075-.866-.032l-3.899.025a.535.535 0 00-.27.007L20.25.71l-.068.032-.053.039a.59.59 0 00-.15.134.868.868 0 00-.134.223 20.36 20.36 0 01-1.45 2.875c-.333.528-.64.986-.92 1.373-.28.388-.514.673-.703.856-.19.183-.361.33-.515.44-.153.112-.27.158-.352.141a10.423 10.423 0 01-.23-.05.87.87 0 01-.305-.314 1.345 1.345 0 01-.155-.498 5.215 5.215 0 01-.048-.518c-.004-.144-.002-.349.007-.613.01-.264.014-.443.014-.536 0-.324.006-.675.02-1.054.014-.38.024-.68.034-.901.009-.222.013-.456.013-.703 0-.247-.016-.44-.047-.581a1.906 1.906 0 00-.142-.409.701.701 0 00-.277-.307 1.618 1.618 0 00-.454-.172C13.858.066 13.25.01 12.508.002 10.83-.015 9.751.087 9.273.309c-.19.093-.361.221-.514.383-.163.187-.185.29-.068.306.541.077.925.26 1.15.55l.082.153c.063.11.126.307.19.588.063.28.103.592.121.932a9.376 9.376 0 010 1.597c-.045.443-.088.788-.129 1.035-.04.247-.101.447-.182.6a2.495 2.495 0 01-.163.281.228.228 0 01-.067.064c-.118.043-.24.064-.366.064s-.28-.06-.46-.179a3.185 3.185 0 01-.562-.492 6.595 6.595 0 01-.657-.875 15.013 15.013 0 01-.758-1.328l-.216-.37c-.135-.24-.32-.586-.555-1.042a19.527 19.527 0 01-.623-1.323.85.85 0 00-.325-.408L5.104.806a.945.945 0 00-.217-.108 1.503 1.503 0 00-.311-.083L.866.64C.489.64.23.721.096.883L.04.96A.394.394 0 000 1.164c0 .094.027.209.081.345a41.17 41.17 0 001.767 3.475C2.484 6.1 3.037 7 3.506 7.68c.47.681.948 1.324 1.435 1.929.487.604.81.992.968 1.162.158.17.282.298.372.384l.339.306c.216.205.534.45.954.735.42.285.884.566 1.394.843a7.83 7.83 0 001.78.677 6.503 6.503 0 001.977.211h1.557c.316-.026.555-.12.717-.281l.054-.064c.036-.05.07-.13.101-.236.032-.107.048-.224.048-.351-.01-.367.02-.697.088-.99.067-.294.144-.516.23-.665.086-.149.183-.274.291-.377.108-.102.185-.163.23-.185a.891.891 0 01.108-.045c.217-.068.472-.002.766.199.293.2.568.447.825.74.258.295.567.624.928.99.36.367.677.64.947.818l.27.154c.182.102.416.196.705.28.288.086.541.107.758.065l3.465-.051c.343 0 .61-.054.799-.16.19-.107.302-.224.338-.351a.934.934 0 00.007-.435 1.534 1.534 0 00-.095-.338z" fill="#fff" fill-opacity=".6"/></svg><svg fill="none" viewBox="0 0 45 31" id="icon-vk-w" xmlns="http://www.w3.org/2000/svg"><path d="M35.654 0H9.346C4.184 0 0 4.074 0 9.098v12.803C0 26.927 4.184 31 9.346 31h26.308C40.816 31 45 26.927 45 21.901V9.098C45 4.074 40.816 0 35.654 0zm-6.32 16.123l-12.306 5.713c-.328.153-.706-.08-.706-.434V9.618c0-.358.388-.59.717-.429l12.305 6.07c.366.181.36.692-.01.864z" fill="#fff"/></svg><svg fill="none" viewBox="0 0 26 18" id="icon-youtoobe" xmlns="http://www.w3.org/2000/svg"><path d="M20.6 0H5.4C2.418 0 0 2.365 0 5.283v7.434C0 15.635 2.418 18 5.4 18h15.2c2.982 0 5.4-2.365 5.4-5.283V5.283C26 2.365 23.582 0 20.6 0zm-3.652 9.362l-7.11 3.317a.285.285 0 01-.408-.252V5.585c0-.208.225-.343.415-.25l7.11 3.526a.277.277 0 01-.007.5z" fill="#fff" fill-opacity=".6"/></svg><svg fill="none" viewBox="0 0 45 24" id="icon-youtoobe-w" xmlns="http://www.w3.org/2000/svg"><path d="M44.761 21.675c-.054-.11-.105-.201-.152-.274-.78-1.315-2.273-2.928-4.475-4.84l-.047-.045-.023-.021-.024-.022h-.023c-1-.89-1.633-1.49-1.898-1.796-.485-.584-.593-1.175-.328-1.775.187-.452.89-1.408 2.108-2.868.641-.774 1.148-1.395 1.523-1.862 2.703-3.358 3.874-5.504 3.515-6.439l-.14-.218c-.094-.132-.336-.252-.726-.362-.39-.11-.89-.127-1.5-.054l-6.747.043c-.11-.036-.266-.033-.469.011l-.305.066-.117.055-.093.066c-.079.043-.164.12-.258.23-.093.109-.172.237-.234.383a34.779 34.779 0 01-2.507 4.928 46.397 46.397 0 01-1.594 2.354c-.484.664-.89 1.154-1.218 1.467a8.324 8.324 0 01-.89.756c-.266.19-.469.27-.61.24a18.1 18.1 0 01-.398-.087 1.5 1.5 0 01-.527-.536c-.133-.227-.222-.512-.27-.855a8.798 8.798 0 01-.081-.887c-.008-.248-.004-.598.012-1.051.016-.453.023-.76.023-.92 0-.555.012-1.157.035-1.807.024-.65.043-1.164.059-1.544.016-.38.023-.781.023-1.204 0-.424-.028-.756-.082-.997a3.253 3.253 0 00-.245-.7 1.207 1.207 0 00-.48-.526 2.819 2.819 0 00-.786-.296C23.984.113 22.93.018 21.65.003c-2.905-.029-4.772.146-5.6.526-.327.16-.624.38-.89.657-.281.321-.32.496-.117.525.937.132 1.6.446 1.991.942l.141.263c.11.19.219.526.328 1.008.11.481.18 1.014.21 1.598.079 1.066.079 1.979 0 2.738a30.57 30.57 0 01-.222 1.774c-.07.423-.175.766-.316 1.03-.14.262-.234.422-.281.48a.393.393 0 01-.117.11c-.203.073-.414.11-.633.11-.219 0-.484-.102-.797-.307a5.498 5.498 0 01-.972-.843c-.336-.358-.714-.858-1.136-1.5a25.671 25.671 0 01-1.312-2.278l-.375-.635a53.464 53.464 0 01-.96-1.785 33.318 33.318 0 01-1.078-2.267 1.458 1.458 0 00-.563-.7l-.117-.067a1.642 1.642 0 00-.375-.186 2.622 2.622 0 00-.539-.142l-6.42.043c-.655 0-1.1.14-1.335.417l-.094.131c-.046.073-.07.19-.07.35 0 .161.047.358.14.592a70.328 70.328 0 003.058 5.957c1.101 1.913 2.058 3.454 2.87 4.62a54.688 54.688 0 002.484 3.308c.843 1.037 1.402 1.701 1.675 1.993.273.293.488.511.644.657l.586.526c.375.35.925.77 1.652 1.259.726.49 1.53.971 2.413 1.446.883.474 1.91.861 3.081 1.16 1.172.3 2.312.42 3.42.362h2.695c.547-.044.96-.205 1.242-.482l.093-.11c.063-.087.122-.222.176-.404.055-.183.082-.384.082-.603a6.763 6.763 0 01.152-1.697c.117-.503.25-.883.399-1.139.149-.255.316-.47.503-.645.188-.176.321-.282.4-.318.077-.037.14-.062.186-.077.375-.116.816-.003 1.324.34a7.58 7.58 0 011.43 1.27c.445.504.98 1.07 1.604 1.697.625.628 1.172 1.095 1.64 1.402l.469.263c.313.175.719.336 1.219.482.499.146.936.183 1.311.11l5.998-.088c.593 0 1.055-.092 1.382-.274.328-.182.523-.384.586-.602.063-.22.066-.468.012-.745-.055-.277-.11-.47-.165-.58z" fill="#fff"/></svg><svg fill="none" viewBox="0 0 70 70" id="seat" xmlns="http://www.w3.org/2000/svg"><path d="M27.667 12.538h-.944v-.944a1.026 1.026 0 10-2.052 0v.944h-.944a1.026 1.026 0 000 2.052h.944v.944a1.026 1.026 0 102.052 0v-.944h.944a1.026 1.026 0 100-2.052zM46.272 12.538h-.944v-.944a1.026 1.026 0 00-2.052 0v.944h-.945a1.026 1.026 0 100 2.052h.945v.944a1.026 1.026 0 102.052 0v-.944h.944a1.026 1.026 0 100-2.052zM27.667 26.63h-.944v-.945a1.026 1.026 0 10-2.052 0v.945h-.944a1.026 1.026 0 000 2.051h.944v.945a1.026 1.026 0 102.052 0v-.945h.944a1.026 1.026 0 100-2.052zM46.272 26.63h-.944v-.945a1.026 1.026 0 10-2.052 0v.945h-.945a1.026 1.026 0 100 2.051h.945v.945a1.026 1.026 0 102.052 0v-.945h.944a1.026 1.026 0 100-2.052z" fill="#fff"/><path d="M63.456 29.052H49.88c-1.16 0-2.103.943-2.103 2.103v2.778c0 1.16.943 2.103 2.103 2.103h.198v4.644a5.338 5.338 0 00-3.314-1.15H22.968c-1.25 0-2.401.43-3.314 1.15v-4.654h.467c1.16 0 2.103-.944 2.103-2.103v-2.778c0-1.16-.943-2.103-2.103-2.103H6.544c-1.16 0-2.103.943-2.103 2.103v2.778c0 1.16.943 2.103 2.103 2.103h.467V49.12a4.019 4.019 0 003.663 3.998v2.046a2.95 2.95 0 002.947 2.948h2.351v9.836h-1.468a1.026 1.026 0 100 2.052h10.25a1.026 1.026 0 000-2.052h-1.468v-9.836h23.159v9.836h-1.47a1.026 1.026 0 100 2.052h10.252a1.026 1.026 0 100-2.052h-1.469v-9.836h2.351a2.95 2.95 0 002.947-2.948v-2.046a4.019 4.019 0 003.663-3.998V36.037h.737c1.16 0 2.104-.944 2.104-2.103v-2.778c0-1.16-.944-2.103-2.104-2.103zm-40.488 12.53h23.795a3.318 3.318 0 013.314 3.314v6.187H19.654v-6.187a3.318 3.318 0 013.314-3.314zM6.544 33.974a.052.052 0 01-.051-.051v-2.778c0-.028.023-.051.051-.051h13.577c.028 0 .051.023.051.051v2.778a.052.052 0 01-.051.051H6.544zm4.481 17.109a1.964 1.964 0 01-1.962-1.962V36.026h8.539v15.057h-6.577zm10.209 16.865h-3.21v-9.836h3.21v9.836zm30.472 0h-3.21v-9.836h3.21v9.836zm5.298-12.784a.896.896 0 01-.895.896H13.621a.896.896 0 01-.895-.896v-2.03h44.278v2.03zm3.663-6.043c0 1.081-.88 1.962-1.962 1.962h-6.576V36.036h8.538v13.085zm2.84-15.188a.052.052 0 01-.05.051H49.878a.052.052 0 01-.051-.051v-2.778c0-.028.023-.051.051-.051h13.577c.028 0 .052.023.052.051v2.778zM57.696 8.455C57.696 3.793 53.903 0 49.24 0H20.486c-4.662 0-8.455 3.793-8.455 8.455V25.27a1.026 1.026 0 002.052 0V8.455a6.41 6.41 0 016.403-6.403h28.755c3.53 0 6.403 2.872 6.403 6.408l.08 16.814a1.026 1.026 0 001.025 1.02h.005a1.026 1.026 0 001.021-1.03l-.08-16.809z" fill="#fff"/></svg><svg fill="none" viewBox="0 0 70 70" id="theater" xmlns="http://www.w3.org/2000/svg"><path d="M68.927 33.641V3.936c0-.568-.46-1.027-1.027-1.027H2.1c-.567 0-1.027.46-1.027 1.027V33.64A2.01 2.01 0 000 35.418v2.108c0 .77.436 1.44 1.073 1.777v26.761c0 .567.46 1.027 1.027 1.027h65.8c.567 0 1.027-.46 1.027-1.027V39.303A2.011 2.011 0 0070 37.526v-2.108c0-.77-.436-1.44-1.073-1.777zM66.486 4.963c-.412.604-1.17 1.313-2.373 2.068l-.045.028a16.335 16.335 0 01-.314.19l-.169.099-.138.08-.138.076-.173.096-.032.017c-.148.08-.303.16-.46.241l-.128.065-.185.091-.172.084a22.818 22.818 0 01-.834.385l-.068.03c-.42.184-.866.369-1.342.553-.615.239-1.271.475-1.973.707A57.483 57.483 0 0151.84 11.4a1.017 1.017 0 00-.103.015c-2.045.428-4.197.78-6.397 1.046-.028.004-.055.01-.082.015A87.003 87.003 0 0135 13.077a87.05 87.05 0 01-10.257-.6c-.027-.007-.054-.012-.082-.016a75.83 75.83 0 01-6.397-1.045 1.017 1.017 0 00-.103-.016c-2.155-.456-4.203-1-6.103-1.627a40.953 40.953 0 01-1.973-.707 33.528 33.528 0 01-1.342-.553l-.068-.03a29.615 29.615 0 01-.666-.304l-.168-.08-.172-.084-.184-.091-.128-.065c-.156-.08-.309-.16-.456-.24-.012-.006-.025-.012-.036-.019-.06-.031-.116-.063-.173-.095l-.138-.077-.139-.08a17.865 17.865 0 01-.169-.098l-.1-.06a15.709 15.709 0 01-.214-.131l-.045-.028c-1.202-.755-1.961-1.464-2.372-2.068h62.97zM3.126 7.569c.317.274.68.553 1.092.835 1.09.755 2.545 1.54 4.476 2.325C8.692 17.18 6.81 24.359 5.2 29.32a1.027 1.027 0 101.953.634c1.594-4.911 3.444-11.948 3.584-18.461.22.076.445.153.676.229a58.042 58.042 0 005.326 1.467c-2.17 6.735-5.71 12.287-8.361 15.824a1.027 1.027 0 001.643 1.232c2.774-3.7 6.487-9.532 8.739-16.629 1.414.277 2.87.518 4.356.72-2.175 5.33-6.527 10.82-9.916 14.6a1.027 1.027 0 101.53 1.371c6.318-7.048 9.188-12.33 10.49-15.71A89.3 89.3 0 0035 15.13c3.316 0 6.605-.183 9.779-.534 2.22 5.775 6.89 11.696 10.499 15.721a1.027 1.027 0 001.53-1.37c-3.393-3.784-7.749-9.278-9.925-14.61a76.495 76.495 0 004.356-.72c2.254 7.104 5.974 12.942 8.753 16.646a1.025 1.025 0 001.437.205c.454-.34.546-.984.205-1.437-2.656-3.541-6.201-9.1-8.374-15.842a58.057 58.057 0 005.326-1.467c.23-.076.455-.153.676-.23.14 6.51 1.988 13.543 3.58 18.45a1.027 1.027 0 001.954-.633c-1.609-4.959-3.488-12.133-3.49-18.581 1.93-.785 3.385-1.57 4.476-2.325.412-.282.775-.561 1.091-.835v25.839h-5.696c-1.109 0-2.01.901-2.01 2.01v2.108c0 .546.22 1.041.574 1.404a150.269 150.269 0 00-2.074 6.832H12.333c-.71-2.57-1.452-4.943-2.074-6.832.355-.363.575-.858.575-1.404v-2.108c0-1.108-.902-2.01-2.01-2.01H3.127V7.568zM2.055 37.482v-2.02H8.78v2.02H2.054zm5.284 27.221a.652.652 0 01-.573.334H3.127V39.536h.984c3.74 12.663 4.947 22.043 3.227 25.167zm5.035.334V59.37c0-1.22.993-2.213 2.214-2.213h5.333c1.22 0 2.213.993 2.213 2.213v5.668h-9.76zm11.814 0V59.37c0-1.22.993-2.213 2.214-2.213h5.333c1.22 0 2.213.993 2.213 2.213v5.668h-9.76zm11.814 0V59.37c0-1.22.994-2.213 2.214-2.213h5.333c1.22 0 2.214.993 2.214 2.213v5.668h-9.76zm21.575 0h-9.76V59.37c0-1.22.993-2.213 2.213-2.213h5.333c1.22 0 2.214.993 2.214 2.213v5.668zm2.054 0V59.37a4.272 4.272 0 00-4.268-4.267H50.03a4.258 4.258 0 00-3.24 1.495 4.258 4.258 0 00-3.24-1.495h-5.334a4.259 4.259 0 00-3.24 1.495 4.259 4.259 0 00-3.241-1.495h-5.333a4.26 4.26 0 00-3.24 1.495 4.259 4.259 0 00-3.241-1.495h-5.333a4.272 4.272 0 00-4.268 4.267v5.668h-.877c2.081-5.26-.893-17.612-3.19-25.501h2.045c.97 2.947 2.24 7.096 3.213 11.31a1.027 1.027 0 102-.462c-.198-.862-.41-1.721-.628-2.568h44.236c-.22.855-.434 1.722-.634 2.593a1.027 1.027 0 002.001.462c.974-4.223 2.246-8.382 3.219-11.335h2.045c-2.298 7.889-5.272 20.24-3.19 25.501h-.93zm7.243 0h-3.638a.652.652 0 01-.573-.334c-1.72-3.124-.513-12.504 3.227-25.167h.984v25.501zm1.073-27.555H61.22v-2.02h6.726v2.02z" fill="#fff"/></svg></svg>